HIERARCHY
ROOT Hips
{
	OFFSET 0.000000 88.474243 0.000000
	CHANNELS 6 Xposition Yposition Zposition Zrotation Yrotation Xrotation 
	JOINT Hips_Spine
	{
		OFFSET 0.000000 0.000000 0.000000
		CHANNELS 3 Zrotation Yrotation Xrotation
		JOINT Spine
		{
			OFFSET 0.005100 8.711998 -0.691000
			CHANNELS 3 Zrotation Yrotation Xrotation
			JOINT Spine1
			{
				OFFSET -0.009200 8.660301 -1.275000
				CHANNELS 3 Zrotation Yrotation Xrotation
				JOINT Spine2
				{
					OFFSET 0.006300 9.852501 -1.857000
					CHANNELS 3 Zrotation Yrotation Xrotation
					JOINT Spine2_Neck
					{
						OFFSET 0.000000 0.000000 0.000000
						CHANNELS 3 Zrotation Yrotation Xrotation
						JOINT Neck
						{
							OFFSET 0.016300 11.420799 -0.263300
							CHANNELS 3 Zrotation Yrotation Xrotation
							End Site #name: Head
							{
								OFFSET -0.019200 9.262405 2.362500
							}
						}
					}
					JOINT Spine2_LeftShoulder
					{
						OFFSET 0.000000 0.000000 0.000000
						CHANNELS 3 Zrotation Yrotation Xrotation
						JOINT LeftShoulder
						{
							OFFSET 5.616900 6.732201 -0.345700
							CHANNELS 3 Zrotation Yrotation Xrotation
							JOINT LeftArm
							{
								OFFSET 10.664888 -0.183372 -2.440700
								CHANNELS 3 Zrotation Yrotation Xrotation
								JOINT LeftForeArm
								{
									OFFSET 27.459126 0.000000 0.000000
									CHANNELS 3 Zrotation Yrotation Xrotation
									End Site #name: LeftHand
									{
										OFFSET 21.306858 0.000000 0.000000
									}
								}
							}
						}
					}
					JOINT Spine2_RightShoulder
					{
						OFFSET 0.000000 0.000000 0.000000
						CHANNELS 3 Zrotation Yrotation Xrotation
						JOINT RightShoulder
						{
							OFFSET -5.580300 6.737503 -0.344400
							CHANNELS 3 Zrotation Yrotation Xrotation
							JOINT RightArm
							{
								OFFSET -10.679335 -0.188484 -2.383900
								CHANNELS 3 Zrotation Yrotation Xrotation
								JOINT RightForeArm
								{
									OFFSET -27.503529 0.000000 0.000000
									CHANNELS 3 Zrotation Yrotation Xrotation
									End Site #name: RightHand
									{
										OFFSET -21.306808 0.000000 0.000000
									}
								}
							}
						}
					}
				}
			}
		}
	}
	JOINT Hips_LeftUpLeg
	{
		OFFSET 0.000000 0.000000 0.000000
		CHANNELS 3 Zrotation Yrotation Xrotation
		JOINT LeftUpLeg
		{
			OFFSET 6.857700 -6.739601 0.312100
			CHANNELS 3 Zrotation Yrotation Xrotation
			JOINT LeftLeg
			{
				OFFSET -0.367590 -34.731552 -4.572400
				CHANNELS 3 Zrotation Yrotation Xrotation
				End Site #name: LeftFoot
				{
					OFFSET 0.367590 -34.656704 -6.067400
				}
			}
		}
	}
	JOINT Hips_RightUpLeg
	{
		OFFSET 0.000000 0.000000 0.000000
		CHANNELS 3 Zrotation Yrotation Xrotation
		JOINT RightUpLeg
		{
			OFFSET -6.876100 -6.733299 0.301000
			CHANNELS 3 Zrotation Yrotation Xrotation
			JOINT RightLeg
			{
				OFFSET 0.347353 -34.795158 -4.515900
				CHANNELS 3 Zrotation Yrotation Xrotation
				End Site #name: RightFoot
				{
					OFFSET -0.347353 -34.589367 -6.070300
				}
			}
		}
	}
}
MOTION
Frames: 15
Frame Time: 0.041667
3.405546 0.359113 -2.346271 175.407186 16.814808 -178.866797 0.000000 -0.000000 0.000000 2.773145 -1.851510 3.557966 0.376361 -2.153892 2.853816 0.000000 0.000000 0.000000 1.149114 -2.036646 3.821944 0.934598 -30.709081 -0.046419 0.118608 -1.918300 0.773508 -1.972841 -0.913803 -1.181355 -79.025615 -24.859258 9.717352 8.642985 -27.809491 4.646312 0.336813 -3.160407 1.921986 18.844972 18.696906 4.413362 54.047584 17.251499 -0.747107 -175.860111 77.457754 -171.440469 0.000000 0.000000 0.000000 -2.540066 15.410227 -6.945972 -0.415702 -32.238101 -12.937934 0.000000 0.000000 0.000000 -6.308687 -43.734425 -11.028748 -15.160641 -13.923064 22.196056 
3.465280 0.388357 -2.397093 175.471082 16.908173 -178.910541 0.000000 -0.000000 0.000000 2.539711 -1.992046 3.697318 0.301054 -2.136547 2.759523 0.000000 0.000000 0.000000 1.082157 -2.022191 3.707806 0.740072 -30.238984 -0.070416 0.071115 -1.903890 0.729068 -2.008849 -1.156305 -1.111299 -78.775148 -25.333396 10.273523 8.630883 -28.164928 4.492568 0.294118 -3.123607 1.822132 18.699243 18.713755 4.474188 54.001615 17.280624 -0.395992 -175.287854 78.379432 -170.840930 0.000000 0.000000 0.000000 -2.522949 15.173636 -6.938436 -0.407213 -32.384278 -12.991304 0.000000 0.000000 0.000000 -6.203839 -42.895337 -11.002648 -14.612176 -13.411173 22.012081 
3.525241 0.419118 -2.446638 175.556287 16.848766 -178.940124 0.000000 -0.000000 0.000000 2.295345 -2.156506 3.842352 0.220635 -2.126114 2.666056 0.000000 0.000000 0.000000 1.014850 -2.007766 3.595182 0.596280 -29.622355 -0.144575 0.020711 -1.892560 0.687230 -2.028655 -1.455345 -1.028480 -78.532102 -25.787033 10.757577 8.603152 -28.613685 4.302057 0.249894 -3.094383 1.718482 18.526499 18.700611 4.491150 53.958298 17.313969 -0.076078 -174.644542 79.262051 -170.173555 0.000000 0.000000 0.000000 -2.493158 14.941614 -6.919163 -0.416897 -32.508212 -12.987324 0.000000 0.000000 0.000000 -6.121655 -41.995665 -10.923304 -13.975406 -12.867671 21.774548 
3.585397 0.451432 -2.495805 175.616664 16.652077 -178.967256 0.000000 -0.000000 0.000000 2.055642 -2.334410 3.994785 0.134904 -2.119704 2.570154 0.000000 0.000000 0.000000 0.951013 -1.991331 3.490291 0.482533 -28.831694 -0.281635 -0.027129 -1.881053 0.649727 -2.036175 -1.808907 -0.931038 -78.250222 -26.212257 11.127535 8.556813 -29.200235 4.080078 0.206562 -3.067090 1.615271 18.341260 18.674307 4.478803 53.918483 17.321892 0.188435 -173.989919 80.040223 -169.494374 0.000000 0.000000 0.000000 -2.467884 14.717099 -6.936008 -0.452078 -32.591880 -12.903586 0.000000 0.000000 0.000000 -6.058577 -41.095165 -10.830985 -13.288323 -12.291556 21.513024 
3.645113 0.484746 -2.546512 175.638260 16.456342 -178.986563 0.000000 -0.000000 0.000000 1.823578 -2.512256 4.178691 0.044186 -2.109948 2.479513 0.000000 0.000000 0.000000 0.894540 -1.972488 3.388722 0.385116 -27.896169 -0.547839 -0.069852 -1.863539 0.619797 -2.033847 -2.210672 -0.815383 -77.928939 -26.609499 11.381835 8.518611 -30.016676 3.839389 0.162524 -3.041282 1.513001 18.155557 18.638827 4.442739 53.876726 17.359731 0.409973 -173.386589 80.600784 -168.863196 0.000000 0.000000 0.000000 -2.447314 14.484076 -7.037256 -0.525147 -32.623691 -12.699267 0.000000 0.000000 0.000000 -6.004011 -40.321273 -10.737781 -12.640317 -11.709283 21.260692 
3.704796 0.518976 -2.599900 175.619890 16.193689 -178.988632 0.000000 -0.000000 0.000000 1.607227 -2.675711 4.399725 -0.037366 -2.089957 2.400757 0.000000 0.000000 0.000000 0.828716 -1.953044 3.293785 0.331807 -26.826598 -1.000345 -0.114175 -1.838131 0.598106 -2.022176 -2.630213 -0.691586 -77.560614 -26.951713 11.554055 8.512699 -31.126783 3.587130 0.111841 -3.012362 1.424079 17.973166 18.613010 4.370922 53.833763 17.433397 0.566597 -173.017382 80.795386 -168.459747 0.000000 0.000000 0.000000 -2.435896 14.248442 -7.266055 -0.643853 -32.559285 -12.330715 0.000000 -0.000000 0.000000 -5.952160 -39.729802 -10.663680 -12.061264 -11.119451 21.040516 
3.765663 0.553568 -2.656717 175.563372 15.827805 -178.969375 0.000000 -0.000000 0.000000 1.388677 -2.803105 4.643126 -0.110676 -2.059094 2.339244 0.000000 0.000000 0.000000 0.749162 -1.928421 3.219478 0.339624 -25.667029 -1.635443 -0.162332 -1.807320 0.591225 -2.009774 -3.057514 -0.551319 -77.148863 -27.232231 11.754456 8.587525 -32.492997 3.270362 0.050647 -2.981121 1.372124 17.823640 18.607206 4.290565 53.795574 17.509182 0.648493 -173.000063 80.618716 -168.414792 0.000000 0.000000 0.000000 -2.434821 14.020291 -7.628868 -0.808040 -32.400959 -11.796935 0.000000 -0.000000 0.000000 -5.926840 -39.510621 -10.605283 -11.637245 -10.590503 20.889438 
3.828015 0.589009 -2.719305 175.452701 15.327636 -178.933044 0.000000 -0.000000 0.000000 1.151343 -2.867435 4.907569 -0.197043 -2.019722 2.296214 0.000000 0.000000 0.000000 0.656300 -1.902712 3.163435 0.356792 -24.491555 -2.357381 -0.217426 -1.770565 0.597293 -2.007946 -3.467693 -0.410513 -76.654092 -27.453532 12.022846 8.710149 -34.072320 3.025055 -0.020653 -2.942701 1.338820 17.712250 18.664188 4.249014 53.750460 17.586361 0.603687 -173.274175 80.017003 -168.662088 0.000000 0.000000 0.000000 -2.448752 13.797661 -8.115034 -1.011502 -32.154401 -11.116782 0.000000 -0.000000 0.000000 -5.912075 -39.546638 -10.583093 -11.328466 -10.115804 20.795928 
3.893487 0.626643 -2.787871 175.267581 14.753037 -178.891568 0.000000 -0.000000 0.000000 0.872623 -2.880958 5.186125 -0.295506 -1.980413 2.267188 0.000000 0.000000 0.000000 0.553038 -1.872740 3.112739 0.314531 -23.300042 -3.068323 -0.280176 -1.732003 0.614050 -2.042621 -3.841627 -0.267276 -76.019049 -27.601186 12.320425 8.934843 -35.970786 2.712772 -0.107624 -2.902539 1.311720 17.615182 18.752604 4.210435 53.711346 17.647874 0.427038 -173.834848 78.981937 -169.207547 0.000000 0.000000 0.000000 -2.471931 13.599003 -8.697288 -1.249257 -31.836935 -10.314662 0.000000 -0.000000 0.000000 -5.930520 -39.802392 -10.609864 -11.110738 -9.701067 20.734709 
3.964606 0.666720 -2.862045 175.035276 14.065143 -178.848479 -0.000000 -0.000000 0.000000 0.517025 -2.877902 5.460864 -0.404002 -1.945680 2.259141 0.000000 0.000000 0.000000 0.439560 -1.839869 3.074365 0.290283 -22.223193 -3.646409 -0.350302 -1.693773 0.636571 -2.102943 -4.177536 -0.122664 -75.292485 -27.609833 12.524880 9.343894 -39.698598 2.229149 -0.206646 -2.859223 1.291681 17.545693 18.882159 4.201550 53.686837 17.718460 0.155061 -174.566841 77.504785 -169.945166 0.000000 0.000000 0.000000 -2.518566 13.430989 -9.353577 -1.520739 -31.496577 -9.400858 0.000000 -0.000000 0.000000 -5.995272 -40.120599 -10.672670 -10.983882 -9.433606 20.665309 
4.041863 0.710439 -2.944908 174.748460 13.328184 -178.817389 -0.000000 -0.000000 0.000000 0.050322 -2.899572 5.786185 -0.518732 -1.925802 2.264533 0.000000 0.000000 0.000000 0.316579 -1.814625 3.044164 0.269821 -21.254741 -4.098420 -0.427717 -1.662872 0.661167 -2.178456 -4.462750 0.013749 -74.561165 -27.526159 12.579561 9.843332 -43.712561 1.627056 -0.316087 -2.826927 1.274365 17.502144 19.010066 4.192340 53.677627 17.806715 -0.149842 -175.303789 75.656965 -170.704090 0.000000 0.000000 0.000000 -2.594686 13.300058 -10.042731 -1.815758 -31.179824 -8.416997 0.000000 -0.000000 -0.000000 -6.090167 -40.339162 -10.774699 -10.858005 -9.247236 20.545781 
4.126814 0.758176 -3.036618 174.465007 12.479836 -178.782072 -0.000000 -0.000000 0.000000 -0.525092 -2.996795 6.164607 -0.639893 -1.927220 2.282775 0.000000 0.000000 0.000000 0.185148 -1.802727 3.021952 0.181509 -20.329862 -4.478339 -0.511821 -1.645662 0.684192 -2.241376 -4.735365 0.138469 -73.824435 -27.447696 12.531798 10.398916 -47.483208 0.951696 -0.434678 -2.811893 1.254001 17.489223 19.140381 4.184587 53.686842 17.924351 -0.508262 -175.981260 73.526900 -171.414211 0.000000 0.000000 0.000000 -2.694687 13.214130 -10.703665 -2.120108 -30.891097 -7.419933 0.000000 -0.000000 -0.000000 -6.210000 -40.304336 -10.876078 -10.631619 -9.072656 20.301540 
4.224129 0.811270 -3.134715 174.192129 11.703715 -178.750246 -0.000000 -0.000000 0.000000 -1.184172 -3.152368 6.534152 -0.766248 -1.946642 2.311706 0.000000 0.000000 0.000000 0.050044 -1.798939 3.004401 0.016663 -19.432542 -4.793691 -0.600408 -1.641736 0.700819 -2.295402 -4.998109 0.254443 -73.179718 -27.495086 12.626237 10.968748 -50.828916 0.231541 -0.561112 -2.810893 1.226060 17.481243 19.252460 4.161676 53.713819 18.048985 -0.898983 -176.542968 71.245418 -172.017268 0.000000 0.000000 -0.000000 -2.813859 13.174342 -11.254318 -2.397621 -30.612241 -6.489957 0.000000 -0.000000 -0.000000 -6.353532 -39.991229 -10.956251 -10.207035 -8.881029 19.916497 
4.335902 0.870237 -3.237114 173.945920 11.161100 -178.725989 -0.000000 -0.000000 0.000000 -1.876579 -3.311371 6.872477 -0.878905 -1.987121 2.338376 0.000000 0.000000 0.000000 -0.071211 -1.799300 3.000517 -0.139429 -18.478139 -5.063698 -0.686108 -1.645608 0.722171 -2.298075 -5.151100 0.282132 -72.498014 -27.600031 12.696736 11.593793 -53.897151 -0.495105 -0.689016 -2.817728 1.191315 17.449717 19.349314 4.106366 53.768861 18.209339 -1.335827 -177.005974 68.897255 -172.527260 0.000000 0.000000 -0.000000 -2.953979 13.180825 -11.710418 -2.639104 -30.374962 -5.662169 0.000000 0.000000 -0.000000 -6.507585 -39.455223 -11.009506 -9.611582 -8.686104 19.351048 
4.462568 0.934449 -3.343157 173.724539 10.808225 -178.712900 -0.000000 -0.000000 0.000000 -2.514949 -3.484303 7.187923 -0.987143 -2.036338 2.367950 0.000000 0.000000 0.000000 -0.182239 -1.800740 3.004973 -0.329092 -17.469145 -5.324815 -0.757906 -1.658446 0.749388 -2.281336 -5.253548 0.283082 -71.787381 -27.717796 12.747440 12.286733 -56.924829 -1.315224 -0.808723 -2.845883 1.157539 17.364392 19.437189 3.992874 53.852211 18.403515 -1.805042 -177.374264 66.553868 -172.947371 0.000000 0.000000 -0.000000 -3.109898 13.224471 -12.114219 -2.854364 -30.190848 -4.934395 0.000000 0.000000 -0.000000 -6.654410 -38.705022 -11.067861 -8.906500 -8.506070 18.679965 
